Coordinates
version=1
nRows=16
nColumns=22
inDegrees=yes

Units are S.I. units (second, meters, Newtons, ...)
If the header above contains a line with 'inDegrees', this indicates whether rotational values are in degrees (yes) or radians (no).

endheader
time	pelvis_tilt	pelvis_list	pelvis_rotation	pelvis_tx	pelvis_ty	pelvis_tz	hip_flexion_r	hip_adduction_r	hip_rotation_r	knee_angle_r	ankle_angle_r	subtalar_angle_r	hip_flexion_l	hip_adduction_l	hip_rotation_l	knee_angle_l	ankle_angle_l	subtalar_angle_l	lumbar_extension	lumbar_bending	lumbar_rotation
      1.42000000	     -1.82649874	     -3.82932643	     -3.10742406	     -1.33084886	      1.02012302	     -0.39366902	      2.27930149	      8.13631707	     -3.91210746	    -10.38133061	      9.66796704	     -7.07954899	      4.79244301	     -5.54267707	     -6.89427684	    -15.24335289	     13.15188159	      0.65953952	    -10.29893162	      1.83263103	      1.04863544
      1.43000000	     -1.88160371	     -3.89191899	     -3.12075936	     -1.33025675	      1.01976265	     -0.39282306	      2.39674262	      8.25729719	     -3.85980689	    -10.57374617	      9.76591182	     -7.17438493	      5.19544086	     -5.69878022	     -6.80975357	    -15.96637440	     13.33287912	      0.81002933	    -10.36295834	      1.92858059	      1.07272829
      1.44000000	     -1.92120273	     -3.96370912	     -3.13278449	     -1.32964440	      1.01939564	     -0.39194246	      2.49427961	      8.38961243	     -3.81761261	    -10.76242544	      9.88142757	     -7.26611350	      5.60374582	     -5.86752882	     -6.71526642	    -16.73216823	     13.52307649	      0.95688709	    -10.44850711	      2.03092776	      1.11277256
      1.45000000	     -1.95074185	     -4.04417460	     -3.14490664	     -1.32903857	      1.01901372	     -0.39103022	      2.58666342	      8.53162407	     -3.77736118	    -10.96189441	     10.00062598	     -7.35613852	      6.02294186	     -6.04815993	     -6.60598489	    -17.53732303	     13.72165425	      1.10550613	    -10.55442810	      2.14097645	      1.16060249
      1.46000000	     -1.97396136	     -4.13261297	     -3.15799479	     -1.32844329	      1.01861092	     -0.39010207	      2.67525631	      8.68198477	     -3.73929354	    -11.16711538	     10.12432299	     -7.44617659	      6.45997473	     -6.23845047	     -6.48296044	    -18.38627484	     13.91888465	      1.25917028	    -10.67521428	      2.26475181	      1.21602929
      1.47000000	     -1.99621545	     -4.23196415	     -3.16873110	     -1.32787289	      1.01818109	     -0.38914058	      2.76454288	      8.84583976	     -3.70348458	    -11.37369828	     10.24900832	     -7.53673617	      6.92291738	     -6.44304946	     -6.34453898	    -19.28079667	     14.10704095	      1.41975296	    -10.80759664	      2.39821110	      1.27549352
      1.48000000	     -2.05195478	     -4.33467806	     -3.16937473	     -1.32733795	      1.01767388	     -0.38815337	      2.89298990	      9.01802144	     -3.67246435	    -11.58230617	     10.38344087	     -7.64417939	      7.46174206	     -6.65654999	     -6.19380230	    -20.23880133	     14.23742455	      1.63122525	    -10.90586672	      2.53932263	      1.32762685
      1.49000000	     -2.06428700	     -4.45653895	     -3.16699920	     -1.32680960	      1.01721609	     -0.38714782	      2.96780342	      9.20912405	     -3.63289587	    -11.77937318	     10.48075331	     -7.72628656	      7.96884903	     -6.88629240	     -6.01812576	    -21.22553461	     14.40840132	      1.79160087	    -11.06638769	      2.70241932	      1.38859473
      1.50000000	     -2.11293640	     -4.56655076	     -3.16090428	     -1.32628235	      1.01670343	     -0.38611128	      3.07413488	      9.39186429	     -3.60357784	    -11.96074840	     10.60765453	     -7.82032103	      8.54623134	     -7.10702448	     -5.84108964	    -22.26371004	     14.47470439	      2.00300768	    -11.18414619	      2.85118925	      1.44644035
      1.51000000	     -2.10666818	     -4.69053759	     -3.15343356	     -1.32571747	      1.01628407	     -0.38504369	      3.09889783	      9.58912303	     -3.55867727	    -12.10611915	     10.68912683	     -7.88283574	      9.07345738	     -7.33863454	     -5.65090247	    -23.32438133	     14.56308801	      2.15408812	    -11.36931901	      3.01292094	      1.50957209
      1.52000000	     -2.13271603	     -4.79715352	     -3.14441994	     -1.32514304	      1.01583833	     -0.38395277	      3.14742198	      9.77102989	     -3.51969648	    -12.23032026	     10.77586560	     -7.94828461	      9.66571486	     -7.55272279	     -5.44781316	    -24.43541184	     14.55714391	      2.36183783	    -11.51317497	      3.15823945	      1.56561291
      1.53000000	     -2.17749321	     -4.87055583	     -3.13925595	     -1.32453824	      1.01540316	     -0.38281687	      3.20208843	      9.92069352	     -3.48013575	    -12.33073520	     10.87775437	     -8.01422042	     10.30164265	     -7.73267600	     -5.23464506	    -25.58676741	     14.44220933	      2.64663013	    -11.62749580	      3.26216734	      1.62253086
      1.54000000	     -2.19111196	     -4.94215567	     -3.13566036	     -1.32388411	      1.01505990	     -0.38165854	      3.19559601	     10.06851339	     -3.43032666	    -12.38568605	     10.94665958	     -8.05926301	     10.92710184	     -7.90675664	     -4.99382511	    -26.78353153	     14.29606030	      2.93125763	    -11.77464723	      3.36414924	      1.67941717
      1.55000000	     -2.17383446	     -5.01271795	     -3.13198164	     -1.32316648	      1.01481602	     -0.38047772	      3.12221060	     10.21564102	     -3.37016269	    -12.38512479	     10.96853615	     -8.08523568	     11.54768842	     -8.07529547	     -4.71568555	    -28.03476965	     14.09971962	      3.19345634	    -11.95283648	      3.46530815	      1.73755598
      1.56000000	     -2.20615839	     -5.02858596	     -3.14467388	     -1.32241774	      1.01454410	     -0.37926060	      3.10007316	     10.30605491	     -3.31434690	    -12.38505154	     11.05347006	     -8.11810778	     12.26134945	     -8.18517640	     -4.40998005	    -29.35335839	     13.76573915	      3.63553615	    -12.06195194	      3.50215889	      1.80034535
      1.57000000	     -2.18770008	     -5.07214122	     -3.14367617	     -1.32157281	      1.01440237	     -0.37804052	      2.96788522	     10.42477349	     -3.26215903	    -12.29011428	     11.03221777	     -8.12512942	     12.95952985	     -8.31465638	     -4.04077820	    -30.74083177	     13.38014916	      3.97096629	    -12.22274216	      3.57029379	      1.86316088
